<?xml version="1.0" encoding="utf-8" standalone="no"?>
<!DOCTYPE svg PUBLIC "-//W3C//DTD SVG 1.1//EN"
  "http://www.w3.org/Graphics/SVG/1.1/DTD/svg11.dtd">
<svg xmlns:xlink="http://www.w3.org/1999/xlink" width="794.4192pt" height="361.296pt" viewBox="0 0 794.4192 361.296" xmlns="http://www.w3.org/2000/svg" version="1.1">
 <metadata>
  <rdf:RDF xmlns:dc="http://purl.org/dc/elements/1.1/" xmlns:cc="http://creativecommons.org/ns#" xmlns:rdf="http://www.w3.org/1999/02/22-rdf-syntax-ns#">
   <cc:Work>
    <dc:type rdf:resource="http://purl.org/dc/dcmitype/StillImage"/>
    <dc:date>2026-09-01T00:21:37.688507</dc:date>
    <dc:format>image/svg+xml</dc:format>
    <dc:creator>
     <cc:Agent>
      <dc:title>Matplotlib v3.9.4, https://matplotlib.org/</dc:title>
     </cc:Agent>
    </dc:creator>
   </cc:Work>
  </rdf:RDF>
 </metadata>
 <defs>
  <style type="text/css">*{stroke-linejoin: round; stroke-linecap: butt}</style>
 </defs>
 <g id="figure_1">
  <g id="patch_1">
   <path d="M 0 361.296
L 794.4192 361.296
L 794.4192 -0
L 0 -0
z
" style="fill: #ffffff"/>
  </g>
  <g id="axes_1">
   <g id="patch_2">
    <path d="M 142.53948 226.63944
L 274.60692 226.63944
Q 291.62592 226.63944 291.62592 219.01644
L 291.62592 141.56676
Q 291.62592 133.94376 274.60692 133.94376
L 142.53948 133.94376
Q 125.52048 133.94376 125.52048 141.56676
L 125.52048 219.01644
Q 125.52048 226.63944 142.53948 226.63944
z
" clip-path="url(#p3555dbd743)" style="fill: #ffffff; stroke-dasharray: 5.55,2.4; stroke-dashoffset: 0; stroke: #475569; stroke-width: 1.5; stroke-linejoin: miter"/>
   </g>
   <g id="patch_3">
    <path d="M 360.38268 226.63944
L 492.45012 226.63944
Q 509.46912 226.63944 509.46912 219.01644
L 509.46912 141.56676
Q 509.46912 133.94376 492.45012 133.94376
L 360.38268 133.94376
Q 343.36368 133.94376 343.36368 141.56676
L 343.36368 219.01644
Q 343.36368 226.63944 360.38268 226.63944
z
" clip-path="url(#p3555dbd743)" style="fill: #ffffff; stroke-dasharray: 5.55,2.4; stroke-dashoffset: 0; stroke: #475569; stroke-width: 1.5; stroke-linejoin: miter"/>
   </g>
   <g id="patch_4">
    <path d="M 326.300138 186.39
Q 337.916957 186.39 348.136234 186.39
" clip-path="url(#p3555dbd743)" style="fill: none; stroke: #475569; stroke-width: 1.25; stroke-linecap: round"/>
    <path d="M 342.936234 183.79
L 348.136234 186.39
L 342.936234 188.99
z
" clip-path="url(#p3555dbd743)" style="fill: #475569; stroke: #475569; stroke-width: 1.25; stroke-linecap: round"/>
   </g>
   <g id="patch_5">
    <path d="M 578.22588 226.63944
L 710.29332 226.63944
Q 727.31232 226.63944 727.31232 219.01644
L 727.31232 141.56676
Q 727.31232 133.94376 710.29332 133.94376
L 578.22588 133.94376
Q 561.20688 133.94376 561.20688 141.56676
L 561.20688 219.01644
Q 561.20688 226.63944 578.22588 226.63944
z
" clip-path="url(#p3555dbd743)" style="fill: #ffffff; stroke: #15803d; stroke-width: 1.5; stroke-linejoin: miter"/>
   </g>
   <g id="patch_6">
    <path d="M 544.143338 186.39
Q 555.760157 186.39 565.979434 186.39
" clip-path="url(#p3555dbd743)" style="fill: none; stroke: #475569; stroke-width: 1.25; stroke-linecap: round"/>
    <path d="M 560.779434 183.79
L 565.979434 186.39
L 560.779434 188.99
z
" clip-path="url(#p3555dbd743)" style="fill: #475569; stroke: #475569; stroke-width: 1.25; stroke-linecap: round"/>
   </g>
   <g id="text_1">
    <text style="font: 700 14px 'DejaVu Sans', 'Arial', 'Helvetica', sans-serif; text-anchor: middle" x="446.8392" y="73.5696" transform="rotate(-0 446.8392 73.5696)">PF checkpoint provenance — host C++ persistence contract</text>
   </g>
   <g id="text_2">
    <text style="fill: #0f172a; font: 9px 'DejaVu Sans', 'Arial', 'Helvetica', sans-serif" transform="translate(194.440387 162.618975)">V2–V4</text>
    <text style="fill: #0f172a; font: 9px 'DejaVu Sans', 'Arial', 'Helvetica', sans-serif" transform="translate(157.906716 172.697006)">legacy read supported</text>
    <text style="fill: #0f172a; font: 9px 'DejaVu Sans', 'Arial', 'Helvetica', sans-serif" transform="translate(160.95195 182.775037)">zero auxiliary default</text>
    <text style="fill: #0f172a; font: 9px 'DejaVu Sans', 'Arial', 'Helvetica', sans-serif" transform="translate(208.5732 192.853069)"/>
    <text style="fill: #0f172a; font: 9px 'DejaVu Sans', 'Arial', 'Helvetica', sans-serif" transform="translate(169.551169 202.9311)">legacy / unbound</text>
   </g>
   <g id="text_3">
    <text style="fill: #0f172a; font: 9px 'DejaVu Sans', 'Arial', 'Helvetica', sans-serif" transform="translate(420.474994 162.618975)">V5</text>
    <text style="fill: #0f172a; font: 9px 'DejaVu Sans', 'Arial', 'Helvetica', sans-serif" transform="translate(375.749916 172.697006)">legacy read supported</text>
    <text style="fill: #0f172a; font: 9px 'DejaVu Sans', 'Arial', 'Helvetica', sans-serif" transform="translate(372.043744 182.775037)">package identity absent</text>
    <text style="fill: #0f172a; font: 9px 'DejaVu Sans', 'Arial', 'Helvetica', sans-serif" transform="translate(426.4164 192.853069)"/>
    <text style="fill: #0f172a; font: 9px 'DejaVu Sans', 'Arial', 'Helvetica', sans-serif" transform="translate(366.582572 202.9311)">active-aux restart rejected</text>
   </g>
   <g id="text_4">
    <text style="fill: #0f172a; font: 9px 'DejaVu Sans', 'Arial', 'Helvetica', sans-serif" transform="translate(638.318194 157.579959)">V6</text>
    <text style="fill: #0f172a; font: 9px 'DejaVu Sans', 'Arial', 'Helvetica', sans-serif" transform="translate(589.887647 167.657991)">four buckets + PSD bins</text>
    <text style="fill: #0f172a; font: 9px 'DejaVu Sans', 'Arial', 'Helvetica', sans-serif" transform="translate(590.965537 177.736022)">write / read persistence</text>
    <text style="fill: #0f172a; font: 9px 'DejaVu Sans', 'Arial', 'Helvetica', sans-serif" transform="translate(644.2596 187.814053)"/>
    <text style="fill: #0f172a; font: 9px 'DejaVu Sans', 'Arial', 'Helvetica', sans-serif" transform="translate(589.748428 197.892084)">validation contract hash</text>
    <text style="fill: #0f172a; font: 9px 'DejaVu Sans', 'Arial', 'Helvetica', sans-serif" transform="translate(592.133428 207.970116)">+ package provenance</text>
   </g>
   <g id="text_5">
    <g id="patch_7">
     <path d="M 262.854825 287.255844
L 630.823575 287.255844
Q 635.323575 287.255844 635.323575 282.755844
L 635.323575 272.976156
Q 635.323575 268.476156 630.823575 268.476156
L 262.854825 268.476156
Q 258.354825 268.476156 258.354825 272.976156
L 258.354825 282.755844
Q 258.354825 287.255844 262.854825 287.255844
z
" style="fill: #15803d; stroke: #15803d; stroke-linejoin: miter"/>
    </g>
    <text style="fill: #ffffff; font: 700 10px 'DejaVu Sans', 'Arial', 'Helvetica', sans-serif; text-anchor: middle" x="446.8392" y="280.398031" transform="rotate(-0 446.8392 280.398031)">PASS_PF_ZERO_MODE_CHECKPOINT_PROVENANCE_V2_TO_V6_AUX</text>
   </g>
   <g id="text_6">
    <text style="fill: #b91c1c; font: 700 10px 'DejaVu Sans', 'Arial', 'Helvetica', sans-serif; text-anchor: middle" x="446.8392" y="320.225912" transform="rotate(-0 446.8392 320.225912)">Host persistence/backward-read evidence only. CUDA PF restart smoke: NOT RUN CUDA.</text>
   </g>
  </g>
  <g id="text_7">
   <g id="patch_8">
    <path d="M 7.2 17.405
L 300.3575 17.405
Q 302.5975 17.405 302.5975 15.165
L 302.5975 7.2
Q 302.5975 4.96 300.3575 4.96
L 7.2 4.96
Q 4.96 4.96 4.96 7.2
L 4.96 15.165
Q 4.96 17.405 7.2 17.405
z
" style="fill: #15803d; stroke: #15803d; stroke-linejoin: miter"/>
   </g>
   <text style="fill: #ffffff; font: 700 8px 'DejaVu Sans', 'Arial', 'Helvetica', sans-serif; text-anchor: start" x="7.2" y="13.27875" transform="rotate(-0 7.2 13.27875)">HOST STORAGE CONTROL — make test_pf_zero_mode_checkpoint</text>
  </g>
 </g>
 <defs>
  <clipPath id="p3555dbd743">
   <rect x="106.4592" y="49.176" width="680.76" height="304.92"/>
  </clipPath>
 </defs>
</svg>
